<svg width="145" height="75" viewBox="0 0 145 75" fill="none" xmlns="http://www.w3.org/2000/svg">
<g clip-path="url(#clip0_15_77)">
<path d="M58.8 17.217C60.381 17.217 61.704 15.858 61.704 13.83C61.704 11.802 60.381 10.461 58.8 10.461C57.219 10.461 55.878 11.82 55.878 13.83C55.878 15.84 57.219 17.217 58.8 17.217Z" fill="#EEEDDC"/>
<path d="M49.194 13.83C49.194 11.82 47.871 10.461 46.29 10.461C44.709 10.461 43.368 11.82 43.368 13.83C43.368 15.84 44.709 17.217 46.29 17.217C47.871 17.217 49.194 15.858 49.194 13.83Z" fill="#EEEDDC"/>
<path d="M68.553 16.713C70.005 16.713 71.271 15.393 71.271 13.587C71.271 11.781 70.005 10.422 68.553 10.422C67.101 10.422 65.835 11.742 65.835 13.587C65.835 15.432 67.083 16.713 68.553 16.713Z" fill="#EEEDDC"/>
<path d="M87.912 15.84C87.912 16.698 88.527 17.31 89.7 17.31C91.281 17.31 92.268 16.251 92.268 14.928V14.22H90.63C88.86 14.22 87.912 14.835 87.912 15.84Z" fill="#EEEDDC"/>
<path d="M110.901 60.606C109.395 60.606 108.09 61.965 108.09 63.975C108.09 65.985 109.392 67.362 110.901 67.362C112.41 67.362 113.73 66.003 113.73 63.975C113.73 61.947 112.428 60.606 110.901 60.606Z" fill="#EEEDDC"/>
<path d="M92.223 60.606C90.642 60.606 89.301 61.965 89.301 63.975C89.301 65.985 90.642 67.362 92.223 67.362C93.804 67.362 95.127 66.003 95.127 63.975C95.127 61.947 93.807 60.606 92.223 60.606Z" fill="#EEEDDC"/>
<path d="M132.813 49.503H104.88C103.842 49.503 103.38 48.201 104.19 47.55C106.974 45.318 108.768 41.895 108.768 38.067V36.93C108.768 32.211 106.047 28.107 102.096 26.091C101.316 25.692 101.316 24.555 102.096 24.156C106.044 22.14 108.768 18.036 108.768 13.317V12.18C108.768 5.481 103.287 0 96.588 0H12.18C5.481 0 0 5.481 0 12.18V13.317C0 20.016 5.481 25.497 12.18 25.497H38.067C39.105 25.497 39.567 26.799 38.757 27.45C35.973 29.682 34.179 33.105 34.179 36.933V38.07C34.179 42.789 36.9 46.893 40.851 48.909C41.631 49.308 41.631 50.445 40.851 50.844C36.903 52.86 34.179 56.964 34.179 61.683V62.82C34.179 69.519 39.66 75 46.359 75H56.85C61.569 75 65.673 72.279 67.689 68.328C68.088 67.548 69.225 67.548 69.624 68.328C71.64 72.276 75.744 75 80.463 75H132.813C139.512 75 144.993 69.519 144.993 62.82V61.683C144.993 54.984 139.512 49.503 132.813 49.503ZM22.833 18.519H21.159V9.399L17.064 18.519H16.059L12 9.474V18.519H10.305V5.49H11.925L16.596 15.969L21.285 5.49H22.83V18.519H22.833ZM25.926 21.963C25.554 21.963 25.275 21.87 25.05 21.795V20.343C25.254 20.418 25.44 20.454 25.665 20.454C26.298 20.454 26.763 20.157 27.117 19.245L27.489 18.297L23.784 9.159H25.515L28.287 16.305L31.005 9.159H32.661L28.641 19.245C27.786 21.405 26.967 21.963 25.923 21.963H25.926ZM36.852 17.217C38.286 17.217 39.123 16.23 39.438 15.132H41.037C40.683 16.974 39.081 18.723 36.849 18.723C34.374 18.723 32.325 16.62 32.325 13.827C32.325 11.034 34.374 8.952 36.849 8.952C39.081 8.952 40.683 10.701 41.037 12.543H39.438C39.12 11.445 38.283 10.458 36.852 10.458C35.271 10.458 33.93 11.817 33.93 13.827C33.93 15.837 35.268 17.214 36.852 17.214V17.217ZM95.199 5.49H96.801V18.519H95.199V5.49ZM90.279 10.422C89.088 10.422 88.491 11.13 88.344 11.949H86.724C86.892 10.386 88.212 8.952 90.279 8.952C92.346 8.952 93.888 10.44 93.888 12.582V18.519H92.679L92.343 17.346H92.25C91.878 17.886 90.966 18.723 89.439 18.723C87.54 18.723 86.313 17.457 86.313 15.912C86.313 14.124 88.026 12.933 90.519 12.933H92.268V12.504C92.268 11.22 91.467 10.419 90.276 10.419L90.279 10.422ZM86.28 32.253V30.858H87.639V33.315H91.101L93.876 40.461L96.594 33.315H98.25L94.23 43.401C93.375 45.561 92.556 46.119 91.512 46.119C91.14 46.119 90.861 46.026 90.636 45.951V44.499C90.84 44.574 91.026 44.61 91.251 44.61C91.884 44.61 92.349 44.313 92.703 43.401L93.075 42.453L89.967 34.785H87.639V39.699C87.639 40.854 88.236 41.373 89.109 41.373C89.352 41.373 89.556 41.337 89.76 41.244V42.714C89.538 42.789 89.238 42.882 88.791 42.882C87.228 42.882 86.037 41.745 86.037 39.756V34.788H84.438V33.375H85.146C85.872 33.375 86.283 32.985 86.283 32.259L86.28 32.253ZM81.156 8.952C83.388 8.952 84.99 10.701 85.344 12.543H83.745C83.427 11.445 82.59 10.458 81.159 10.458C79.578 10.458 78.237 11.817 78.237 13.827C78.237 15.837 79.575 17.214 81.159 17.214C82.59 17.214 83.43 16.227 83.745 15.129H85.344C84.99 16.971 83.388 18.72 81.156 18.72C78.681 18.72 76.632 16.617 76.632 13.824C76.632 11.031 78.681 8.949 81.156 8.949V8.952ZM74.79 5.733C75.366 5.733 75.813 6.141 75.813 6.738C75.813 7.335 75.366 7.761 74.79 7.761C74.214 7.761 73.785 7.314 73.785 6.738C73.785 6.162 74.232 5.733 74.79 5.733ZM73.962 30.093C74.538 30.093 74.985 30.501 74.985 31.098C74.985 31.695 74.538 32.121 73.962 32.121C73.386 32.121 72.957 31.674 72.957 31.098C72.957 30.522 73.404 30.093 73.962 30.093ZM74.763 33.519V42.882H73.164V33.519H74.763ZM68.442 8.952C69.93 8.952 70.974 9.921 71.232 10.329H71.325L71.679 9.156H72.87V18.09C72.87 20.49 71.25 22.056 68.721 22.056C66.339 22.056 64.98 20.586 64.644 19.17H66.264C66.561 20.007 67.437 20.583 68.7 20.583C70.245 20.583 71.268 19.635 71.268 18.09V16.845H71.175C70.914 17.235 69.891 18.183 68.457 18.183C66.15 18.183 64.233 16.209 64.233 13.587C64.233 10.965 66.15 8.952 68.439 8.952H68.442ZM67.998 33.108C70.233 33.108 71.832 34.857 72.186 36.699H70.587C70.272 35.601 69.432 34.614 68.001 34.614C66.42 34.614 65.079 35.973 65.079 37.983C65.079 39.993 66.42 41.37 68.001 41.37C69.435 41.37 70.272 40.383 70.587 39.285H72.186C71.832 41.127 70.233 42.876 67.998 42.876C65.523 42.876 63.477 40.773 63.477 37.98C63.477 35.187 65.523 33.105 67.998 33.105V33.108ZM58.8 8.952C61.257 8.952 63.324 11.055 63.324 13.827C63.324 16.599 61.26 18.723 58.8 18.723C56.34 18.723 54.279 16.62 54.279 13.827C54.279 11.034 56.325 8.952 58.8 8.952ZM51.54 5.49H53.142V18.519H51.54V5.49ZM41.769 13.83C41.769 11.058 43.815 8.955 46.29 8.955C48.765 8.955 50.814 11.058 50.814 13.83C50.814 16.602 48.75 18.726 46.29 18.726C43.83 18.726 41.769 16.623 41.769 13.83ZM44.805 32.997C44.805 30.969 46.332 29.442 48.918 29.442C51.504 29.442 53.088 31.191 53.199 33.444H51.486C51.411 31.992 50.424 31.005 48.918 31.005C47.412 31.005 46.518 31.86 46.518 32.997C46.518 36.162 53.403 34.524 53.403 39.252C53.403 41.355 51.876 42.882 49.047 42.882C46.218 42.882 44.619 41.169 44.487 38.787H46.2C46.332 40.332 47.337 41.319 49.065 41.319C50.793 41.319 51.69 40.443 51.69 39.291C51.69 36.033 44.805 37.56 44.805 33V32.997ZM49.011 68.97C46.536 68.97 44.49 66.867 44.49 64.074C44.49 61.281 46.536 59.199 49.011 59.199C51.486 59.199 53.535 61.302 53.535 64.074C53.535 66.846 51.468 68.97 49.011 68.97ZM58.614 57.153C58.41 57.078 58.206 57.042 57.963 57.042C57.051 57.042 56.475 57.564 56.475 58.716V59.406H58.614V60.876H56.493V68.766H54.894V60.876H53.592V59.406H54.894V58.644C54.894 56.67 56.067 55.536 57.648 55.536C58.095 55.536 58.392 55.629 58.617 55.704V57.156L58.614 57.153ZM58.437 42.879C55.962 42.879 53.916 40.776 53.916 37.983C53.916 35.19 55.962 33.108 58.437 33.108C60.912 33.108 62.961 35.211 62.961 37.983C62.961 40.755 60.894 42.879 58.437 42.879ZM74.988 50.829C72.168 52.26 69.975 54.756 68.943 57.783C68.85 58.059 68.463 58.059 68.37 57.783C67.338 54.756 65.145 52.26 62.325 50.829C62.034 50.682 62.13 50.247 62.454 50.247H74.856C75.183 50.247 75.276 50.679 74.985 50.829H74.988ZM75.591 18.519H73.989V9.156H75.591V18.519ZM75.762 37.986C75.762 35.214 77.808 33.111 80.265 33.111C82.722 33.111 84.582 35.139 84.582 37.764C84.582 38.154 84.564 38.472 84.507 38.694H77.397C77.64 40.389 78.756 41.412 80.301 41.412C81.417 41.412 82.143 40.908 82.608 40.164H84.264C83.706 41.577 82.218 42.882 80.28 42.882C77.748 42.882 75.759 40.833 75.759 37.986H75.762ZM87.855 68.664H79.833V55.635H81.546V67.044H87.855V68.664ZM92.223 68.868C89.748 68.868 87.702 66.765 87.702 63.972C87.702 61.179 89.748 59.097 92.223 59.097C94.698 59.097 96.747 61.2 96.747 63.972C96.747 66.744 94.68 68.868 92.223 68.868ZM105.657 68.664H104.037V63.267C104.037 61.629 103.032 60.606 101.655 60.606C100.203 60.606 99.18 61.629 99.18 63.267V68.664H97.578V59.301H98.769L99.123 60.474H99.216C99.57 59.934 100.518 59.097 101.895 59.097C104.055 59.097 105.654 60.717 105.654 63.21V68.664H105.657ZM115.332 68.664H114.141L113.787 67.491H113.694C113.415 67.863 112.335 68.868 110.808 68.868C108.462 68.868 106.491 66.84 106.491 63.972C106.491 61.104 108.465 59.097 110.808 59.097C112.296 59.097 113.376 60.066 113.637 60.438H113.73V55.635H115.329V68.664H115.332ZM120.915 68.868C118.44 68.868 116.394 66.765 116.394 63.972C116.394 61.179 118.44 59.097 120.915 59.097C123.39 59.097 125.439 61.2 125.439 63.972C125.439 66.744 123.372 68.868 120.915 68.868ZM134.58 68.664H132.96V63.267C132.96 61.629 131.955 60.606 130.578 60.606C129.126 60.606 128.103 61.629 128.103 63.267V68.664H126.504V59.301H127.695L128.049 60.474H128.142C128.496 59.934 129.444 59.097 130.821 59.097C132.981 59.097 134.58 60.717 134.58 63.21V68.664Z" fill="#EEEDDC"/>
<path d="M58.437 34.617C56.856 34.617 55.515 35.976 55.515 37.986C55.515 39.996 56.856 41.373 58.437 41.373C60.018 41.373 61.341 40.014 61.341 37.986C61.341 35.958 60.021 34.617 58.437 34.617Z" fill="#EEEDDC"/>
<path d="M80.265 34.578C78.852 34.578 77.622 35.676 77.379 37.371H83.019C82.833 35.733 81.735 34.578 80.265 34.578Z" fill="#EEEDDC"/>
<path d="M120.915 60.606C119.334 60.606 117.993 61.965 117.993 63.975C117.993 65.985 119.334 67.362 120.915 67.362C122.496 67.362 123.819 66.003 123.819 63.975C123.819 61.947 122.499 60.606 120.915 60.606Z" fill="#EEEDDC"/>
<path d="M49.011 60.708C47.43 60.708 46.089 62.067 46.089 64.077C46.089 66.087 47.43 67.464 49.011 67.464C50.592 67.464 51.915 66.105 51.915 64.077C51.915 62.049 50.595 60.708 49.011 60.708Z" fill="#EEEDDC"/>
</g>
<defs>
<clipPath id="clip0_15_77">
<rect width="144.993" height="75" fill="white"/>
</clipPath>
</defs>
</svg>
