<svg width="34" height="34" viewBox="0 0 34 34" fill="none" xmlns="http://www.w3.org/2000/svg">
<path d="M17 0C7.61147 0 0 7.61147 0 17C0 26.3885 7.61147 34 17 34C26.3885 34 34 26.3885 34 17C34 7.61147 26.3885 0 17 0ZM2.22133 17.5667V16.4333H14.0443V17.5667H2.22133ZM6.9496 27.8505L6.1472 27.0481L14.5067 18.6887L15.3091 19.4911L6.9496 27.8505ZM14.5089 15.3113L6.14947 6.9496L6.95187 6.1472L15.3113 14.5067L14.5089 15.3091V15.3113ZM17.5667 31.7787H16.4333V19.9557H17.5667V31.7787ZM17.5667 14.0443H16.4333V2.22133H17.5667V14.0443ZM27.0504 6.14947L27.8528 6.95187L19.4933 15.3113L18.6909 14.5089L27.0504 6.14947ZM27.0504 27.8505L18.6909 19.4911L19.4933 18.6887L27.8528 27.0481L27.0504 27.8505ZM31.7787 17.5667H19.9557V16.4333H31.7787V17.5667Z" fill="#EEEDDC"/>
</svg>
