<svg width="112" height="75" viewBox="0 0 112 75" fill="none" xmlns="http://www.w3.org/2000/svg">
<g clip-path="url(#clip0_15_83)">
<path d="M93.7802 36.947H92.0831C85.2006 36.947 79.1958 40.8248 76.115 46.5028C75.4075 47.8058 73.5268 47.8461 72.8238 46.5431C71.1311 43.4086 68.5429 40.8248 65.4084 39.1322C64.1053 38.4292 64.1456 36.5485 65.4487 35.8409C71.1222 32.7602 75 26.7553 75 19.8773V18.1802C75 8.18108 66.8189 0 56.8198 0H55.1227C48.2402 0 42.2354 3.88232 39.1546 9.56027C38.4381 10.8812 36.5619 10.8812 35.8454 9.56027C32.7646 3.88232 26.7598 0 19.8773 0H18.1802C8.18108 0 0 8.18108 0 18.1802V19.8773C0 29.8764 8.18108 38.0575 18.1802 38.0575H19.8773C26.7598 38.0575 32.7646 34.1797 35.8454 28.5017C36.5529 27.1986 38.4336 27.1583 39.1367 28.4614C40.8293 31.5959 43.4175 34.1797 46.552 35.8723C47.8551 36.5753 47.8148 38.456 46.5117 39.1635C40.8383 42.2443 36.9604 48.2491 36.9604 55.1272V56.8243C36.9604 66.8234 45.1415 75.0045 55.1406 75.0045H56.8377C63.7202 75.0045 69.7251 71.1222 72.8058 65.4442C73.5223 64.1232 75.3985 64.1232 76.115 65.4442C79.1958 71.1222 85.2006 75.0045 92.0831 75.0045H93.7802C103.779 75.0045 111.96 66.8234 111.96 56.8243V55.1272C111.96 45.1281 103.779 36.947 93.7802 36.947ZM28.3763 28.7525H25.8777V15.1397L19.7654 28.7525H18.2653L12.2067 15.2517V28.7525H9.6767V9.30503H12.0948L19.0668 24.9463L26.0657 9.30503H28.3718V28.7525H28.3763ZM49.794 14.3068C49.794 11.2798 52.0733 9.00054 55.9332 9.00054C59.7931 9.00054 62.1574 11.6111 62.3231 14.974H59.7663C59.6543 12.8067 58.1811 11.3335 55.9332 11.3335C53.6853 11.3335 52.3509 12.6097 52.3509 14.3068C52.3509 19.031 62.6276 16.5861 62.6276 23.6432C62.6276 26.7822 60.3484 29.0614 56.1257 29.0614C51.9031 29.0614 49.5164 26.5046 49.3194 22.9491H51.8762C52.0733 25.2552 53.5733 26.7285 56.1571 26.7285C58.7408 26.7285 60.0752 25.4209 60.0752 23.7014C60.0752 18.8384 49.7985 21.1177 49.7985 14.3113L49.794 14.3068ZM55.9869 66.0039C51.0702 66.0039 46.8207 61.6962 46.8207 55.9735C46.8207 50.2508 51.0702 45.9475 55.9869 45.9475C60.9036 45.9475 65.1531 50.2552 65.1531 55.9735C65.1531 61.6917 60.9036 66.0039 55.9869 66.0039ZM98.9208 65.695H86.947V46.2475H89.5039V63.2769H98.9208V65.695Z" fill="#EEEDDC"/>
<path d="M55.9869 48.3611C52.4852 48.3611 49.3776 51.4732 49.3776 55.9735C49.3776 60.4737 52.4897 63.5859 55.9869 63.5859C59.4841 63.5859 62.6007 60.4737 62.6007 55.9735C62.6007 51.4732 59.5155 48.3611 55.9869 48.3611Z" fill="#EEEDDC"/>
</g>
<defs>
<clipPath id="clip0_15_83">
<rect width="111.96" height="75" fill="white"/>
</clipPath>
</defs>
</svg>
