<svg viewBox="0 0 984 367" fill="none" xmlns="http://www.w3.org/2000/svg"><path d="M597.595 66.3663C616.911 72.4396 633.317 81.0598 642.5 93.3373C647.253 99.222 651.047 105.535 656.45 111.188C678.833 135.138 726.693 134.782 768.834 124.897C774.605 123.728 780.377 122.59 786.184 121.722C796.431 120.092 806.757 119.774 817.035 119.66C826.6 119.535 836.394 118.825 845.397 116.042C866.123 109.813 917.632 69.3776 937.21 60.2378C940.895 58.4818 944.728 56.8591 948.571 55.2417"/><path d="M440.48 93.0197C438.808 93.2333 398.418 94.8998 357.548 118.647C350.769 122.589 334.132 131.275 323.632 133.936C316.132 135.838 285.114 145.102 278 148"/><path d="M440.48 93.0198C418.845 94.0103 396.801 95.1872 376.977 92.1849C369.72 91.1123 362.846 89.9228 355.114 88.4713C345.709 86.7285 336.13 84.9238 325.988 85.395C318.263 85.6947 310.486 87.277 303.061 89.1957C262.726 100.085 222.171 112.773 192.037 133.478C176.965 143.493 160.811 150.586 140.713 155.872C118.531 161.99 94.8718 166.271 74.1854 174.699C38.6169 189.218 20.6648 215.389 7.75293 238.702"/><path d="M603.668 59.7299C614.422 63.1135 625.383 66.6132 633.552 72.072C641.116 76.9139 644.479 83.793 651.525 88.8616C659.145 94.1911 670.344 98.0169 682.431 98.5753C700.75 99.2814 710.406 89.7626 725.199 84.6613C731.359 82.5233 741.252 82.3395 747.819 82.5679"/><path d="M1018.81 31.0001C994.478 51.5008 956.869 51.8932 921.133 61.0234C905.262 65.2747 888.759 74.6609 871.602 75.0712C851.751 75.5235 844.449 79.1876 826.878 84.247C815.14 87.4275 802.57 89.0866 790.237 89.1814C777.904 89.2822 765.819 87.8299 755.026 84.8387C743.858 81.5817 733.687 77.1148 720.801 76.2357C693.701 74.5728 670.5 48.5001 662 31.0001"/><path d="M489.245 194.151C486.699 186.995 488.462 180.96 492.721 173.605C494.984 169.43 497.779 165.258 502.196 161.634C506.168 158.298 511.281 155.496 516.243 152.694C523.745 148.466 530.858 143.876 536.618 138.739C541.326 134.543 545.187 129.69 545.941 124.847C546.568 121.384 545.554 117.957 544.526 114.641C538.215 97.0297 561.263 94.6869 557.687 73.8268"/><path d="M753.664 321.173C721.331 295.017 702.749 262.651 699.139 228.554C697.998 221.06 696.487 213.566 692.755 206.53C689.205 199.728 683.826 193.386 676.884 187.816C670.013 182.064 662.671 178.389 650.32 178.339C644.049 178.213 637.397 178.265 631.395 177.162C623.111 175.755 615.594 173.116 608.933 169.99C583.361 158.057 569.793 138.35 570.312 117.79C569.954 105.049 570.751 90.6594 557.883 80.7092"/><path d="M570.262 110.651C570.543 105.77 570.622 100.846 573.224 96.0764C576.147 90.55 582.806 85.9136 586.182 80.4275C589.145 75.8398 589.054 71.1244 587.97 66.567"/><path d="M656.646 225.789C654.152 210.776 644.892 208.158 628.105 199.698C613.295 191.111 598.722 181.903 589.079 170.771C581.869 162.416 578.179 152.422 574.891 143.19C573.704 139.347 569.871 125.894 570.307 119.395C570.396 118.068 576.932 121.478 578.762 122.325C592.73 129.409 607.259 136.117 622.307 142.397C638.699 149.262 655.599 155.694 672.757 161.879C697.903 170.517 714.154 176.804 725.796 193.85C733.431 204.169 734.619 216.127 741.393 226.629C745.791 233.365 753.432 238.905 759.824 244.869C770.87 255.054 778.126 266.913 781.128 279.415C789.356 315.165 785.197 354.711 813.208 386.087"/><path d="M1013.14 125.711C994.084 148.471 951.421 158.528 911.452 163.631C902.441 164.937 893.324 165.954 884.376 167.498C871.82 169.436 859.952 173.752 847.478 175.524C840.305 176.515 833.184 176.437 826.138 175.861C819.726 175.346 813.387 174.514 807.009 173.887C765.246 169.582 731.597 178.376 692.701 169.199"/><path d="M653.743 316.963C639.55 310.36 623.491 304.847 612.258 296.246C604.201 290.048 598.405 282.466 591.587 275.469C585.918 269.504 580.658 263.152 579.197 256.038C576.359 243.77 584.967 231.138 587.233 218.732C589.966 207.009 585.012 195.282 585.968 183.881C586.385 179.463 584.74 171.543 586.25 167.153"/><path d="M444.211 314.017C464.172 307.914 485.877 301.619 497.774 287.502C518.653 263.826 528.844 235.934 524.464 209.38C524.133 206.381 523.814 203.387 523.654 200.386C522.494 189.702 527.02 176.458 519.751 167.567C516.33 163.549 513.253 160.348 507.263 157.967"/><path d="M215.801 417.676C248.114 387.739 251.032 353.327 263.72 320.389C270.216 304.223 283.687 289.175 296.064 274.092C301.441 267.596 306.808 261.1 312.205 254.608C317.227 248.592 322.277 242.538 328.103 236.757C359.529 204.094 420.792 198.524 447.245 163.192C454.537 154.453 462.993 145.919 474.203 138.668C479.586 135.113 485.477 131.862 491.651 128.841C501.064 124.182 511.28 120.086 519.25 114.468C522.863 111.928 525.937 109.045 527.878 105.986C530.093 102.587 530.883 98.9873 532.503 95.5237C537.187 85.7982 546.271 83.2217 549.52 73.856"/><path d="M500.045 124.822C479.014 135.29 454.091 142.699 428.282 145.32C378.888 150.555 331.047 136.595 281.683 146.915C248.065 153.457 218.011 168.223 199.273 186.949"/><path d="M422.404 145.987C392.574 153.834 378.243 165.546 364.032 182.883C351.55 197.105 341.448 209.92 341.019 225.768"/><path d="M405.165 193.788C373.403 211.307 356.471 233.631 361.845 258.124C363.418 265.831 365.42 273.513 364.74 281.437C364.475 286.244 363.87 291.08 364.224 295.845C364.721 304.04 368.364 312.038 370.282 320.201C372.227 328.296 373.846 336.503 378.785 343.983C384.385 352.78 392.805 360.698 399.42 369.171C411.609 383.866 416.252 400.671 415.949 417.754"/><path d="M401.467 381.25C384.161 372.276 366.669 363.396 350.767 353.499C335.257 343.799 324.048 331.889 333.9 317.016C339.239 308.287 345.459 299.749 351.184 291.132C356.796 283.393 362.766 275.606 363.626 266.737"/><path d="M436.84 174.276C433.914 180.308 425.325 189.729 420.577 195.43C414.871 202.532 406.275 209.376 402.412 216.819C396.141 228.17 406.386 238.18 420.676 243.778C431.79 248.462 446.32 250.665 457.504 254.96C466.251 258.12 473.483 264.62 468.24 271.366C463.78 277.212 453.338 279.686 443.912 282.225C425.732 286.777 419.615 291.793 414.221 303.05"/><path d="M360.868 249.022C369.677 267.447 382.027 282.718 403.388 296.513C430.518 313.801 470.401 321.932 510.852 323.043"/><path d="M447.801 251.937C471.404 233.115 494.612 207.04 472.815 186.961C439.945 162.005 468.025 143.494 475.529 137.801"/></svg>