<?xml version="1.0" encoding="UTF-8"?>
<svg id="Layer_1" xmlns="http://www.w3.org/2000/svg" version="1.1" viewBox="0 0 984 367">
  <!-- Generator: Adobe Illustrator 29.1.0, SVG Export Plug-In . SVG Version: 2.1.0 Build 142)  -->
  <defs>
    <style>
      .st0 {
        fill: none;
        stroke: #a3d4a4;
        stroke-miterlimit: 10;
      }
    </style>
  </defs>
  <path class="st0" d="M597.6,66.4c19.3,6.1,35.7,14.7,44.9,27,4.8,5.9,8.5,12.2,14,17.9,22.4,23.9,70.2,23.6,112.4,13.7,5.8-1.2,11.5-2.3,17.4-3.2,10.2-1.6,20.6-1.9,30.9-2.1,9.6-.1,19.4-.8,28.4-3.6,20.7-6.2,72.2-46.7,91.8-55.8,3.7-1.8,7.5-3.4,11.4-5"/>
  <path class="st0" d="M440.5,93c-1.7.2-42.1,1.9-82.9,25.6-6.8,3.9-23.4,12.6-33.9,15.3-7.5,1.9-38.5,11.2-45.6,14.1"/>
  <path class="st0" d="M440.5,93c-21.6,1-43.7,2.2-63.5-.8-7.3-1.1-14.1-2.3-21.9-3.7-9.4-1.7-19-3.5-29.1-3.1-7.7.3-15.5,1.9-22.9,3.8-40.3,10.9-80.9,23.6-111,44.3-15.1,10-31.2,17.1-51.3,22.4-22.2,6.1-45.8,10.4-66.5,18.8-35.6,14.5-53.5,40.7-66.4,64"/>
  <path class="st0" d="M603.7,59.7c10.8,3.4,21.7,6.9,29.9,12.3,7.6,4.8,10.9,11.7,18,16.8,7.6,5.3,18.8,9.2,30.9,9.7,18.3.7,28-8.8,42.8-13.9,6.2-2.1,16.1-2.3,22.6-2.1"/>
  <path class="st0" d="M1018.8,31c-24.3,20.5-61.9,20.9-97.7,30-15.9,4.3-32.4,13.6-49.5,14-19.9.5-27.2,4.1-44.7,9.2-11.7,3.2-24.3,4.8-36.6,4.9-12.3.1-24.4-1.4-35.2-4.3-11.2-3.3-21.3-7.7-34.2-8.6-27.1-1.7-50.3-27.7-58.8-45.2"/>
  <path class="st0" d="M489.2,194.2c-2.5-7.2-.8-13.2,3.5-20.5,2.3-4.2,5.1-8.3,9.5-12,4-3.3,9.1-6.1,14-8.9,7.5-4.2,14.6-8.8,20.4-14,4.7-4.2,8.6-9,9.3-13.9.6-3.5-.4-6.9-1.4-10.2-6.3-17.6,16.7-20,13.2-40.8"/>
  <path class="st0" d="M753.7,321.2c-32.3-26.2-50.9-58.5-54.5-92.6-1.1-7.5-2.7-15-6.4-22-3.5-6.8-8.9-13.1-15.9-18.7-6.9-5.8-14.2-9.4-26.6-9.5-6.3-.1-12.9,0-18.9-1.2-8.3-1.4-15.8-4-22.5-7.2-25.6-11.9-39.1-31.6-38.6-52.2-.4-12.7.4-27.1-12.4-37.1"/>
  <path class="st0" d="M570.3,110.7c.3-4.9.4-9.8,3-14.6,2.9-5.5,9.6-10.2,13-15.6,3-4.6,2.9-9.3,1.8-13.9"/>
  <path class="st0" d="M656.6,225.8c-2.5-15-11.8-17.6-28.5-26.1-14.8-8.6-29.4-17.8-39-28.9-7.2-8.4-10.9-18.3-14.2-27.6-1.2-3.8-5-17.3-4.6-23.8,0-1.3,6.6,2.1,8.5,2.9,14,7.1,28.5,13.8,43.5,20.1,16.4,6.9,33.3,13.3,50.5,19.5,25.1,8.6,41.4,14.9,53,32,7.6,10.3,8.8,22.3,15.6,32.8,4.4,6.7,12,12.3,18.4,18.2,11,10.2,18.3,22,21.3,34.5,8.2,35.8,4.1,75.3,32.1,106.7"/>
  <path class="st0" d="M1013.1,125.7c-19.1,22.8-61.7,32.8-101.7,37.9-9,1.3-18.1,2.3-27.1,3.9-12.6,1.9-24.4,6.3-36.9,8-7.2,1-14.3.9-21.3.3-6.4-.5-12.8-1.3-19.1-2-41.8-4.3-75.4,4.5-114.3-4.7"/>
  <path class="st0" d="M653.7,317c-14.2-6.6-30.3-12.1-41.5-20.7-8.1-6.2-13.9-13.8-20.7-20.8-5.7-6-10.9-12.3-12.4-19.4-2.8-12.3,5.8-24.9,8-37.3,2.7-11.7-2.2-23.4-1.3-34.9.4-4.4-1.2-12.3.3-16.7"/>
  <path class="st0" d="M444.2,314c20-6.1,41.7-12.4,53.6-26.5,20.9-23.7,31.1-51.6,26.7-78.1-.3-3-.6-6-.8-9-1.2-10.7,3.4-23.9-3.9-32.8-3.4-4-6.5-7.2-12.5-9.6"/>
  <path class="st0" d="M215.8,417.7c32.3-29.9,35.2-64.3,47.9-97.3,6.5-16.2,20-31.2,32.3-46.3,5.4-6.5,10.7-13,16.1-19.5,5-6,10.1-12.1,15.9-17.9,31.4-32.7,92.7-38.2,119.1-73.6,7.3-8.7,15.7-17.3,27-24.5,5.4-3.6,11.3-6.8,17.4-9.8,9.4-4.7,19.6-8.8,27.6-14.4,3.6-2.5,6.7-5.4,8.6-8.5,2.2-3.4,3-7,4.6-10.5,4.7-9.7,13.8-12.3,17-21.7"/>
  <path class="st0" d="M500,124.8c-21,10.5-46,17.9-71.8,20.5-49.4,5.2-97.2-8.7-146.6,1.6-33.6,6.5-63.7,21.3-82.4,40"/>
  <path class="st0" d="M422.4,146c-29.8,7.8-44.2,19.6-58.4,36.9-12.5,14.2-22.6,27-23,42.9"/>
  <path class="st0" d="M405.2,193.8c-31.8,17.5-48.7,39.8-43.3,64.3,1.6,7.7,3.6,15.4,2.9,23.3-.3,4.8-.9,9.6-.5,14.4.5,8.2,4.1,16.2,6.1,24.4,1.9,8.1,3.6,16.3,8.5,23.8,5.6,8.8,14,16.7,20.6,25.2,12.2,14.7,16.8,31.5,16.5,48.6"/>
  <path class="st0" d="M401.5,381.2c-17.3-9-34.8-17.9-50.7-27.8-15.5-9.7-26.7-21.6-16.9-36.5,5.3-8.7,11.6-17.3,17.3-25.9,5.6-7.7,11.6-15.5,12.4-24.4"/>
  <path class="st0" d="M436.8,174.3c-2.9,6-11.5,15.5-16.3,21.2-5.7,7.1-14.3,13.9-18.2,21.4-6.3,11.4,4,21.4,18.3,27,11.1,4.7,25.6,6.9,36.8,11.2,8.7,3.2,16,9.7,10.7,16.4-4.5,5.8-14.9,8.3-24.3,10.9-18.2,4.6-24.3,9.6-29.7,20.8"/>
  <path class="st0" d="M360.9,249c8.8,18.4,21.2,33.7,42.5,47.5,27.1,17.3,67,25.4,107.5,26.5"/>
  <path class="st0" d="M447.8,251.9c23.6-18.8,46.8-44.9,25-65-32.9-25-4.8-43.5,2.7-49.2"/>
</svg>