<svg width="1308" height="301" viewBox="0 0 1308 301" fill="none" xmlns="http://www.w3.org/2000/svg"><path id="hero_biolum" d="M225.639 256.866C226.904 243.881 227.399 229.645 227.869 216.835C228.735 193.203 227.398 167.077 227.49 142.937"/><path id="hero_biolum" d="M234.639 228.929C235.904 215.945 236.399 201.708 236.869 188.899C237.735 165.266 236.398 139.14 236.49 115"/><path id="hero_biolum" d="M220.49 284.802C219.226 271.818 218.731 257.581 218.26 244.772C217.395 221.139 218.732 195.014 218.64 170.873"/><path id="hero_biolum" d="M996.64 254.866C997.904 241.881 998.4 227.645 998.87 214.835C999.735 191.203 998.399 165.077 998.49 140.937"/><path id="hero_biolum" d="M1005.64 226.929C1006.9 213.945 1007.4 199.708 1007.87 186.899C1008.74 163.266 1007.4 137.14 1007.49 113"/><path id="hero_biolum" d="M991.49 282.802C990.226 269.818 989.731 255.581 989.26 242.772C988.395 219.139 989.732 193.014 989.64 168.873"/><path id="hero_biolum" d="M1280.49 140.929C1279.23 127.945 1278.73 113.708 1278.26 100.899C1277.39 77.2659 1278.73 51.1401 1278.64 27"/><path id="hero_biolum" d="M1285.64 171.405C1286.9 158.421 1287.4 144.184 1287.87 131.375C1288.74 107.742 1287.4 81.6162 1287.49 57.4761"/><path id="hero_biolum" d="M1271.49 176.485C1270.23 163.5 1269.73 149.264 1269.26 136.455C1268.39 112.822 1269.73 86.6959 1269.64 62.5558"/><path id="hero_biolum" d="M467.489 259.929C466.224 246.945 465.729 232.708 465.259 219.899C464.393 196.266 465.73 170.14 465.638 146"/><path id="hero_biolum" d="M472.64 290.405C473.904 277.421 474.4 263.184 474.87 250.375C475.735 226.742 474.399 200.616 474.49 176.476"/><path id="hero_biolum" d="M458.49 295.485C457.226 282.5 456.731 268.264 456.26 255.455C455.395 231.822 456.732 205.696 456.64 181.556"/><path id="hero_biolum" d="M929.49 264.929C928.226 251.945 927.731 237.708 927.26 224.899C926.395 201.266 927.732 175.14 927.64 151"/><path id="hero_biolum" d="M934.64 295.405C935.904 282.421 936.4 268.184 936.87 255.375C937.735 231.742 936.399 205.616 936.49 181.476"/><path id="hero_biolum" d="M920.49 300.485C919.226 287.5 918.731 273.264 918.26 260.455C917.395 236.822 918.732 210.696 918.64 186.556"/><path id="hero_biolum" d="M26.64 104.672C27.9045 95.1836 28.3995 84.7797 28.8699 75.4191C29.7355 58.1488 28.3988 39.0566 28.4903 21.4156"/><path id="hero_biolum" d="M35.64 84.2567C36.9045 74.768 37.3995 64.3642 37.8699 55.0036C38.7355 37.7332 37.3988 18.6411 37.4903 1.00001"/><path id="hero_biolum" d="M21.4904 125.088C20.2259 115.599 19.7309 105.195 19.2604 95.8348C18.3949 78.5644 19.7316 59.4723 19.6401 41.8312"/><path id="hero_biolum" d="M864.49 232.247C863.225 219.262 862.73 205.026 862.26 192.217C861.394 168.584 862.731 142.458 862.64 118.318"/><path id="hero_biolum" d="M869.64 262.723C870.904 249.739 871.399 235.502 871.869 222.693C872.735 199.06 871.398 172.934 871.49 148.794"/><path id="hero_biolum" d="M852.64 211.929C853.904 198.945 854.4 184.708 854.87 171.899C855.735 148.266 854.399 122.14 854.49 98"/><path id="hero_biolum" d="M336.49 264.247C335.225 251.262 334.73 237.026 334.26 224.217C333.394 200.584 334.731 174.458 334.639 150.318"/><path id="hero_biolum" d="M341.639 294.723C342.904 281.739 343.399 267.502 343.869 254.693C344.735 231.06 343.398 204.934 343.49 180.794"/><path id="hero_biolum" d="M324.64 243.929C325.904 230.945 326.4 216.708 326.87 203.899C327.735 180.266 326.399 154.14 326.49 130"/></svg>