<svg width="522" height="526" viewBox="0 0 522 526" fill="none" xmlns="http://www.w3.org/2000/svg">
<path d="M395.82 453.17C390.738 444.064 385.531 435.066 380.074 426.319C375.334 418.705 370.169 411.123 364.87 403.892C341.119 371.46 313.777 342.002 292.649 307.487" stroke="#94F8AF" stroke-linejoin="round"/>
<path d="M381.274 469.482C375.209 457.318 369.077 445.214 362.954 433.275C358.872 425.311 354.323 417.38 349.508 409.857C336.12 388.922 320.225 368.944 306.787 347.692C297.273 332.638 289.958 316.209 282.877 299.906" stroke="#94F8AF" stroke-linejoin="round"/>
<path d="M365.661 485.602C359.013 470.59 352.274 455.627 346.25 440.54C342.901 432.159 339.069 423.811 334.795 415.939C322.74 393.745 306.17 372.876 295.423 349.541C289.158 335.953 284.943 321.183 280.186 306.92" stroke="#94F8AF" stroke-linejoin="round"/>
<path d="M348.491 498.132C342.826 481.112 335.67 464.508 329.872 447.846C326.889 439.282 324.265 430.293 320.666 422.062C310.477 398.802 293.149 376.783 285.076 352.09C280.019 336.612 277.995 319.883 274.021 304.029" stroke="#94F8AF" stroke-linejoin="round"/>
<path d="M329.056 507.321C325.507 489.618 319.825 472.581 314.276 455.136C311.386 446.038 309.336 436.45 306.462 427.494C298.656 403.176 282.152 380.557 275.771 355.315C272.13 340.935 271.855 325.365 269.931 310.419" stroke="#94F8AF" stroke-linejoin="round"/>
<path d="M309.286 513.844C307.278 496.19 303.721 479.045 298.889 461.475C296.14 451.478 293.274 441.431 291.399 431.243C286.776 406.166 273.038 384.039 267.706 359.13C264.157 342.568 265.665 324.307 264.349 307.162" stroke="#94F8AF" stroke-linejoin="round"/>
<path d="M289.833 518.942C288.734 501.106 286.917 483.311 283.135 465.966C280.819 455.352 278.162 444.564 276.271 433.967C272.038 410.265 263.066 386.905 259.992 362.712C258.242 348.9 259.017 334.579 259.292 320.399" stroke="#94F8AF" stroke-linejoin="round"/>
<path d="M269.256 522.85C268.906 504.28 268.206 485.427 265.482 467.574C263.874 457.052 261.783 446.313 260.242 435.791C256.91 412.981 252.503 388.98 252.236 365.678C252.019 347.3 253.761 328.88 254.26 310.461" stroke="#94F8AF" stroke-linejoin="round"/>
<path d="M243.205 525.165C244.413 505.388 245.838 485.294 245.046 465.974C244.638 456.069 243.63 445.872 242.972 435.9C240.298 395.361 246.096 354.865 248.912 314.235" stroke="#94F8AF" stroke-linejoin="round"/>
<path d="M211.706 523.574C215.821 502.939 220.703 482.095 222.936 461.625C223.911 452.628 224.335 443.297 224.86 434.133C226.135 411.773 230.159 390.413 236.215 368.827C242.214 347.458 242.789 325.773 244.721 303.829" stroke="#94F8AF" stroke-linejoin="round"/>
<path d="M179.357 515.827C186.563 495.641 194.761 475.63 200.584 455.311C202.892 447.271 204.841 438.924 206.624 430.676C211.406 408.633 218.87 389.38 228.068 368.761C236.515 349.816 237.107 329.322 239.198 308.995" stroke="#94F8AF" stroke-linejoin="round"/>
<path d="M152.515 502.322C161.42 484.136 171.084 466.316 179.565 447.963C182.923 440.69 186.255 433.309 189.187 425.919C193.495 415.089 196.819 403.767 202.833 393.603C208.149 384.631 214.572 376.383 220.004 367.486C231.883 348.05 231.442 324.707 234.866 302.646" stroke="#94F8AF" stroke-linejoin="round"/>
<path d="M132.987 489.234C142.234 472.739 151.948 456.385 161.32 440.365C165.228 433.684 169.643 426.944 173.417 420.196C179.149 409.949 183.339 398.802 190.812 389.43C197.56 380.966 205.524 373.526 212.089 364.895C226.751 345.626 225.477 319.575 230.867 296.715" stroke="#94F8AF" stroke-linejoin="round"/>
<path d="M116.192 479.121C125.989 463.558 136.078 448.138 145.975 432.826C150.265 426.186 154.864 419.588 159.221 413.006C165.894 402.926 171.234 392.512 179.915 383.823C187.788 375.95 196.852 369.236 204.225 360.863C218.579 344.551 219.404 321.233 224.536 300.514" stroke="#94F8AF" stroke-linejoin="round"/>
<path d="M100.229 469.607C110.91 454.378 121.632 439.174 131.62 423.645C135.994 416.847 140.684 410.14 145.5 403.617C153.014 393.437 160.046 384.573 170.009 376.567C178.765 369.527 188.371 363.312 196.202 355.19C210.939 339.894 212.989 317.059 219.628 297.256" stroke="#94F8AF" stroke-linejoin="round"/>
<path d="M84.8174 458.11C96.5307 443.239 107.494 428.177 117.525 412.19C121.89 405.233 126.822 398.394 132.129 392.17C147.799 373.784 171.159 365.178 188.454 348.275C203.766 333.312 206.866 310.044 216.046 291.1" stroke="#94F8AF" stroke-linejoin="round"/>
<path d="M70.9131 443.156C75.5867 438.632 80.1354 433.984 84.1426 428.968C91.6571 419.563 96.8389 407.849 103.27 398.077C107.811 391.171 113.259 384.498 119.299 378.999C136.652 363.196 163.27 357.072 180.89 340.244C193.678 328.039 199.443 310.644 207.64 295.065" stroke="#94F8AF" stroke-linejoin="round"/>
<path d="M57.9917 424.495C62.0405 420.871 65.8144 416.98 69.0302 412.49C76.1698 402.534 81.6016 390.888 88.9661 381.665C94.2146 375.092 100.579 369.41 107.877 365.137C127.947 353.398 155.114 347.642 173.283 331.271C188.762 317.325 196.443 297.364 209.923 281.786" stroke="#94F8AF" stroke-linejoin="round"/>
<path d="M45.0955 401.551C55.4591 388.888 63.8567 374.567 75.6533 364.528C82.3514 358.83 90.7573 354.956 99.2049 351.549C121.407 342.61 146.408 336.753 166.002 321.699C180.79 310.336 190.87 294.415 203.725 281.103" stroke="#94F8AF" stroke-linejoin="round"/>
<path d="M32.7742 376.367C42.513 365.753 52.5518 355.606 65.7647 349.308C74.6954 345.051 83.9427 341.543 93.3484 338.511C116.009 331.213 138.91 324.632 159.421 311.885C173.109 303.379 185.197 291.608 197.06 280.319" stroke="#94F8AF" stroke-linejoin="round"/>
<path d="M403.142 445.839C398.51 437.599 393.853 428.469 388.338 420.804C384.548 415.531 380.482 410.415 376.4 405.317" stroke="#94F8AF" stroke-linejoin="round"/>
<path d="M387.78 461.959C382.473 451.878 378.558 441.498 373.317 431.559C370.527 426.269 367.086 421.195 363.587 416.18" stroke="#94F8AF" stroke-linejoin="round"/>
<path d="M373.643 477.962C367.453 465.549 360.43 452.661 356.473 439.682C353.84 431.043 348.767 422.795 344.185 414.872" stroke="#94F8AF" stroke-linejoin="round"/>
<path d="M356.564 492.816C352.09 482.678 347.25 472.697 342.918 462.525C340.377 456.569 340.044 450.495 338.194 444.555C334.929 434.067 330.513 423.661 325.765 413.456" stroke="#94F8AF" stroke-linejoin="round"/>
<path d="M338.511 503.355C333.562 485.502 323.84 468.332 321.016 450.379C319.441 440.381 315.717 430.759 312.027 421.179" stroke="#94F8AF" stroke-linejoin="round"/>
<path d="M318.875 510.928C317.509 502.847 317.775 494.949 316.434 486.893C314.809 477.138 309.861 467.84 306.912 458.876C303.921 449.771 301.697 439.624 299.256 429.951" stroke="#94F8AF" stroke-linejoin="round"/>
<path d="M299.455 516.518C298.647 508.079 298.572 500.506 298.497 492.075C298.397 481.503 296.123 474.014 292.766 463.941" stroke="#94F8AF" stroke-linejoin="round"/>
<path d="M279.419 521.142C278.62 502.989 279.419 484.594 275.471 466.899C272.396 453.128 268.722 435.083 266.473 423.237" stroke="#94F8AF" stroke-linejoin="round"/>
<path d="M257.243 524.299C257.659 505.18 257.534 486.035 255.643 467.407C254.277 453.953 250.261 439.607 250.103 425.786" stroke="#94F8AF" stroke-linejoin="round"/>
<path d="M227.818 525.016C230.542 504.671 231.317 483.894 233.999 464.691C235.291 455.419 233.958 444.947 234.174 435.05" stroke="#94F8AF" stroke-linejoin="round"/>
<path d="M195.027 520.459C200.817 499.898 205.641 478.687 211.598 459.468C214.105 451.379 214.905 441.965 216.096 433.059" stroke="#94F8AF" stroke-linejoin="round"/>
<path d="M164.278 509.32C172.409 490.192 183.255 471.465 190.445 452.27C191.711 448.896 192.911 445.464 194.069 442.006" stroke="#94F8AF" stroke-linejoin="round"/>
<path d="M142.401 495.541C151.573 478.162 162.32 462.05 170.834 444.797C174.775 436.808 179.382 428.702 183.439 420.537" stroke="#94F8AF" stroke-linejoin="round"/>
<path d="M125.922 484.819C131.071 476.196 136.169 468.549 141.876 460.334C146.874 453.136 149.807 444.589 154.006 437.233C159.946 426.819 166.802 416.08 173.25 405.542" stroke="#94F8AF" stroke-linejoin="round"/>
<path d="M107.977 474.355C118.283 458.585 129.779 443.847 139.693 427.919C146.166 417.522 152.115 406.083 159.762 396.419" stroke="#94F8AF" stroke-linejoin="round"/>
<path d="M93.6316 465.133C104.054 449.346 115.325 433.634 125.381 417.763C130.238 410.09 134.945 402.118 140.951 395.261" stroke="#94F8AF" stroke-linejoin="round"/>
<path d="M78.0693 451.495C82.7597 445.622 87.9415 438.182 92.7151 432.534C99.4965 424.52 104.82 414.814 110.518 406.075C114.775 399.543 119.532 393.12 125.147 387.464" stroke="#94F8AF" stroke-linejoin="round"/>
<path d="M65.1565 435.416C69.5052 431.201 73.4041 426.036 76.9364 421.404C83.4512 412.856 88.4165 402.009 94.2981 392.795" stroke="#94F8AF" stroke-linejoin="round"/>
<path d="M51.3855 413.223C54.8178 409.724 58.7084 406.308 61.4909 402.326C67.1809 394.17 71.8879 384.689 77.8945 377.008C83.8678 369.369 94.2981 364.387 102.821 359.722" stroke="#94F8AF" stroke-linejoin="round"/>
<path d="M39.4138 390.313C48.8361 379.241 57.6919 366.353 69.4052 358.647C75.72 354.498 82.843 351.124 90.1825 348.192" stroke="#94F8AF" stroke-linejoin="round"/>
<path d="M21.4358 349.933C27.0258 345.076 32.9075 340.594 39.4973 337.095C52.5935 330.138 67.3476 329.839 81.6518 327.514C95.0146 325.34 108.152 320.741 120.865 316.167C149.124 305.995 176.783 292.149 198.86 271.447" stroke="#94F8AF" stroke-linejoin="round"/>
<path d="M21.2358 324.657C28.0672 322.016 35.0818 319.675 42.3048 317.3C53.5099 313.618 65.4064 312.527 77.0864 310.627C95.8977 307.553 114.551 302.638 132.737 296.773C156.072 289.25 174.883 282.402 195.019 269.706" stroke="#94F8AF" stroke-linejoin="round"/>
<path d="M21.0359 299.372C29.1002 298.956 37.1312 298.373 45.104 297.498C54.218 296.506 63.4653 295.215 72.5127 293.732C96.7641 289.758 120.84 284.218 144.6 277.37C162.887 272.105 172.967 272.655 191.162 267.956" stroke="#94F8AF" stroke-linejoin="round"/>
<path d="M16.2708 279.311C26.6927 279.461 37.0898 279.453 47.3951 279.103C56.3592 278.803 65.5066 278.12 74.4207 277.154C114.376 272.797 153.565 263.849 194.02 262.816" stroke="#94F8AF" stroke-linejoin="round"/>
<path d="M9.41431 258.559C22.9854 259.392 36.5315 260.134 49.9276 260.8C58.8584 261.25 68.0141 261.275 76.9282 260.867C101.754 259.742 126.997 255.96 152.131 254.952C169.926 254.235 187.813 256.118 205.466 258.143" stroke="#94F8AF" stroke-linejoin="round"/>
<path d="M3.26587 236.982C19.5862 238.731 35.9148 240.373 52.0018 242.705C60.9326 243.997 70.0799 244.855 79.0274 245.088C104.278 245.746 130.629 241.831 156.213 244.188C171.117 245.563 186.013 249.287 200.742 252.311" stroke="#94F8AF" stroke-linejoin="round"/>
<path d="M1 215.846C18.5783 219.454 36.5231 221.553 53.8598 224.869C62.7655 226.568 71.8629 228.793 80.7937 229.784C106.028 232.592 133.762 228.593 159.188 233.95C175.116 237.307 190.62 243.913 206.332 248.412" stroke="#94F8AF" stroke-linejoin="round"/>
<path d="M2.75757 194.419C19.861 200.201 37.4559 203.791 55.3341 207.715C64.6564 209.756 73.987 212.781 83.1761 214.763C108.144 220.162 135.977 217.179 161.029 224.269C175.299 228.309 188.921 235.857 202.825 241.664" stroke="#94F8AF" stroke-linejoin="round"/>
<path d="M6.98999 174.033C23.277 181.115 39.9055 186.613 57.5421 191.212C67.5725 193.828 77.7029 196.369 87.4751 199.843C111.502 208.382 137.536 207.54 161.77 215.372C177.891 220.587 192.953 231.017 208.457 238.448" stroke="#94F8AF" stroke-linejoin="round"/>
<path d="M12.3047 154.647C28.3001 162.612 44.6204 169.935 61.5322 175.333C71.8792 178.632 82.5511 181.723 92.6732 185.38C115.317 193.57 140.026 197.468 162.52 206.916C175.358 212.306 187.363 220.137 199.509 227.468" stroke="#94F8AF" stroke-linejoin="round"/>
<path d="M19.2114 134.87C35.4651 143.85 52.1436 152.673 68.9721 159.246C78.8859 163.12 89.2329 166.669 99.1134 170.601C120.532 179.124 143.526 187.313 163.836 198.726C179.857 207.732 194.944 218.437 210.64 228.084" stroke="#94F8AF" stroke-linejoin="round"/>
<path d="M30.2249 111.152C46.7451 122.09 63.4403 133.37 80.5603 142.343C89.3495 146.941 98.6801 151.173 107.644 155.58C144.084 173.534 176.258 198.801 210.04 221.553" stroke="#94F8AF" stroke-linejoin="round"/>
<path d="M47.3535 84.6675C63.174 98.5468 78.7778 113.201 95.3897 125.364C102.688 130.713 110.56 135.744 118.233 140.776C136.961 153.056 153.448 167.219 169.11 183.264C184.622 199.143 203.109 210.49 221.153 223.128" stroke="#94F8AF" stroke-linejoin="round"/>
<path d="M70.2383 60.533C84.1176 76.8699 97.3471 93.9733 112.035 109.177C117.841 115.192 124.106 121.057 130.346 126.731C147.049 141.901 159.987 157.98 173.242 176.258C185.422 193.045 202.875 203.808 219.437 215.788" stroke="#94F8AF" stroke-linejoin="round"/>
<path d="M95.356 44.0293C106.653 60.8328 117.258 78.1195 128.905 94.6397C133.52 101.188 138.252 107.761 143.184 113.992C150.407 123.131 158.554 131.671 164.353 141.968C169.468 151.057 173.4 160.737 178.382 169.893C189.279 189.904 209.706 201.192 227.101 215.188" stroke="#94F8AF" stroke-linejoin="round"/>
<path d="M116.458 33.6655C126.122 49.9275 135.428 66.5061 144.608 82.6347C148.441 89.3578 152.073 96.5557 156.03 103.195C162.037 113.276 169.601 122.49 173.975 133.645C177.932 143.725 180.39 154.347 184.58 164.336C193.936 186.671 217.138 198.585 234.233 214.688" stroke="#94F8AF" stroke-linejoin="round"/>
<path d="M133.612 24.1851C142.184 40.4554 150.498 56.9006 158.813 73.1293C162.412 80.1606 165.836 87.4502 169.351 94.5065C174.75 105.328 181.098 115.159 184.28 127.022C187.163 137.777 188.437 148.982 192.011 159.554C198.959 180.14 218.745 192.52 234.124 207.316" stroke="#94F8AF" stroke-linejoin="round"/>
<path d="M149.832 15.1042C157.68 31.9661 165.486 48.8529 173.942 65.2648C177.641 72.446 181.106 79.8689 184.347 87.3001C189.404 98.8968 193.569 109.419 195.519 122.048C197.235 133.154 197.81 144.584 200.934 155.422C206.807 175.833 225.56 189.021 239.398 204.675" stroke="#94F8AF" stroke-linejoin="round"/>
<path d="M167.494 7.51489C174.509 25.0932 182.081 42.1216 190.912 58.8001C194.753 66.0564 198.21 73.7458 200.951 81.4519C209.04 104.22 204.808 128.747 210.806 152.182C216.113 172.926 234.708 187.246 246.521 204.658" stroke="#94F8AF" stroke-linejoin="round"/>
<path d="M187.396 2.94946C188.971 9.25598 190.729 15.5292 193.07 21.5024C197.452 32.7159 205.008 43.0629 210.265 53.5099C213.98 60.8994 217.029 68.9471 218.779 76.9281C223.786 99.8632 215.788 125.972 221.545 149.649C225.727 166.827 237.898 180.515 247.296 195.402" stroke="#94F8AF" stroke-linejoin="round"/>
<path d="M210.015 1.08325C211.131 6.39839 212.614 11.6219 214.888 16.6454C219.945 27.8089 227.31 38.3309 231.617 49.3194C234.691 57.1588 236.424 65.5063 236.474 73.9622C236.607 97.2139 228.01 123.623 233.1 147.541C237.432 167.919 250.886 184.547 257.634 204.016" stroke="#94F8AF" stroke-linejoin="round"/>
<path d="M236.332 1.3916C242.114 16.7039 250.32 31.133 253.111 46.3703C254.694 55.0178 253.852 64.2318 252.578 73.2542C249.22 96.9474 241.789 121.532 245.03 146.025C247.479 164.511 256.227 181.198 261.325 198.993" stroke="#94F8AF" stroke-linejoin="round"/>
<path d="M264.307 3.30762C268.631 17.0453 272.396 30.8164 271.247 45.4121C270.464 55.276 268.881 65.0398 266.806 74.6954C261.791 97.9637 256.043 121.099 256.826 145.233C257.351 161.337 261.5 177.699 265.34 193.619" stroke="#94F8AF" stroke-linejoin="round"/>
<path d="M27.4587 364.554C34.9816 356.897 43.3042 348.616 52.9847 343.843C64.1065 338.353 76.5696 335.579 88.6744 332.829" stroke="#94F8AF" stroke-linejoin="round"/>
<path d="M24.876 336.528C32.3655 332.438 40.1799 328.331 48.7358 325.49C58.8079 322.149 69.5214 319.991 80.0434 317.734" stroke="#94F8AF" stroke-linejoin="round"/>
<path d="M22.302 308.495C29.7665 307.97 37.0644 308.078 44.4873 307.137C53.5263 305.987 62.4821 304.404 71.4129 302.646" stroke="#94F8AF" stroke-linejoin="round"/>
<path d="M18.9529 289.325C28.4085 289.434 38.6472 289.967 48.0362 289.017C54.501 288.367 60.9658 287.409 67.4139 286.426" stroke="#94F8AF" stroke-linejoin="round"/>
<path d="M12.6799 267.965C24.0683 268.406 35.0152 270.206 46.2369 270.639C52.2102 270.872 58.3334 270.422 64.4234 269.897" stroke="#94F8AF" stroke-linejoin="round"/>
<path d="M5.88184 247.72C19.7278 248.562 34.3986 248.928 47.6198 251.994C56.4173 254.035 66.0978 253.769 75.2452 253.76" stroke="#94F8AF" stroke-linejoin="round"/>
<path d="M1.56616 225.494C12.5797 226.693 23.6431 227.485 34.6233 228.826C41.0548 229.609 46.4782 232.358 52.5515 233.725C63.2651 236.132 74.4868 237.524 85.7003 238.515" stroke="#94F8AF" stroke-linejoin="round"/>
<path d="M1.46655 204.591C19.4031 209.232 39.1307 209.398 56.0925 215.93C65.5398 219.57 75.7368 221.153 85.8756 222.744" stroke="#94F8AF" stroke-linejoin="round"/>
<path d="M4.72388 183.806C12.3967 186.663 19.1114 190.845 26.7592 193.703C36.0149 197.168 46.5452 197.535 55.7842 199.468C65.1648 201.426 75.0619 204.583 84.6592 207.299" stroke="#94F8AF" stroke-linejoin="round"/>
<path d="M9.58936 164.186C17.3038 167.702 23.9019 171.434 31.2414 175.583C40.4471 180.782 48.0699 182.556 58.4669 184.68" stroke="#94F8AF" stroke-linejoin="round"/>
<path d="M15.6038 144.525C31.7241 152.915 47.2613 162.803 64.5563 168.219C78.0191 172.442 95.4891 178.291 106.869 182.256" stroke="#94F8AF" stroke-linejoin="round"/>
<path d="M23.96 123.74C40.3052 133.653 56.9505 143.126 74.0289 150.798C86.3586 156.338 100.796 160.037 112.843 166.81" stroke="#94F8AF" stroke-linejoin="round"/>
<path d="M38.0559 97.897C54.3096 110.427 71.9211 121.49 87.2084 133.412C94.5896 139.168 104.328 143.242 112.793 148.382" stroke="#94F8AF" stroke-linejoin="round"/>
<path d="M58.4001 71.7878C73.3125 87.0834 89.2746 101.863 102.937 116.633C108.686 122.848 116.442 128.255 123.556 133.737" stroke="#94F8AF" stroke-linejoin="round"/>
<path d="M83.4097 50.7273C95.9061 67.3308 106.703 86.0921 119.733 101.921C122.024 104.703 124.39 107.461 126.814 110.193" stroke="#94F8AF" stroke-linejoin="round"/>
<path d="M106.286 38.6641C116.75 55.3009 125.331 72.6543 136.011 88.658C140.96 96.0725 145.675 104.112 150.715 111.701" stroke="#94F8AF" stroke-linejoin="round"/>
<path d="M123.806 29.7583C128.696 38.5308 132.77 46.7617 137.035 55.8175C140.768 63.7485 146.699 70.5632 150.973 77.8694C157.021 88.2248 162.895 99.5299 168.793 110.385" stroke="#94F8AF" stroke-linejoin="round"/>
<path d="M141.843 19.4448C150.349 36.2483 157.363 53.5767 166.202 70.1302C171.967 80.9354 178.907 91.8073 183.439 103.262" stroke="#94F8AF" stroke-linejoin="round"/>
<path d="M157.005 11.6304C165.469 28.5505 173.433 46.1621 182.156 62.8156C186.371 70.8633 190.92 78.9193 193.861 87.5501" stroke="#94F8AF" stroke-linejoin="round"/>
<path d="M176.591 4.97388C179.332 11.9719 183.189 20.1778 185.688 27.1342C189.237 37.0146 194.977 46.4786 199.701 55.7842C203.225 62.7406 206.416 70.0718 208.507 77.7612" stroke="#94F8AF" stroke-linejoin="round"/>
<path d="M196.977 1.83301C198.451 7.70632 200.975 13.6713 203.225 19.0447C207.374 28.9585 214.28 38.689 219.32 48.3863" stroke="#94F8AF" stroke-linejoin="round"/>
<path d="M223.086 1C224.402 5.71531 225.411 10.7972 227.468 15.2042C231.684 24.21 237.54 33.0241 241.189 42.0715C244.822 51.0606 243.922 62.5906 243.697 72.3045" stroke="#94F8AF" stroke-linejoin="round"/>
<path d="M248.904 2.09131C253.785 15.7874 260.517 29.9 261.325 43.8959C261.758 51.4437 261.117 59.2915 259.992 67.1142" stroke="#94F8AF" stroke-linejoin="round"/>
<path d="M292.866 6.70654C294.274 13.9794 295.215 21.3107 294.957 28.7752C294.432 43.5959 287.317 56.5172 282.177 70.0716C277.37 82.7346 274.796 96.414 272.397 109.71C267.073 139.268 267.256 159.313 269.256 191.053" stroke="#94F8AF" stroke-linejoin="round"/>
<path d="M314.859 19.178C313.726 26.4092 312.252 33.6571 310.694 41.105C308.278 52.6517 303.271 63.4985 299.081 74.562C292.333 92.3902 287.267 111.002 283.252 129.679C278.095 153.648 275.046 171.942 272.23 196.402" stroke="#94F8AF" stroke-linejoin="round"/>
<path d="M336.853 31.6494C333.188 38.839 329.672 46.0869 326.44 53.4348C322.741 61.8241 319.242 70.4716 315.993 79.0608C307.312 102.046 300.072 125.664 294.116 149.665C289.534 168.135 282.844 184.589 275.204 201.759" stroke="#94F8AF" stroke-linejoin="round"/>
<path d="M356.606 37.5479C351.266 46.5036 346.076 55.5093 341.227 64.6067C337.003 72.5211 333.021 80.7771 329.406 88.983C313.194 125.764 301.355 164.178 282.028 199.726" stroke="#94F8AF" stroke-linejoin="round"/>
<path d="M378.008 41.9883C370.502 53.3267 363.087 64.6817 355.806 75.9535C350.949 83.468 346.359 91.3824 342.243 99.3051C330.805 121.365 321.458 145.125 309.769 167.385C301.488 183.148 290.916 197.702 280.344 211.981" stroke="#94F8AF" stroke-linejoin="round"/>
<path d="M399.768 47.4531C390.088 60.716 380.507 74.0288 370.443 86.7918C364.853 93.8814 359.546 101.371 354.864 109.01C341.668 130.546 331.888 155.33 317.05 176.308C308.411 188.529 297.731 199.559 287.75 210.814" stroke="#94F8AF" stroke-linejoin="round"/>
<path d="M419.204 56.0591C407.299 69.4802 396.502 83.976 384.964 97.3222C379.032 104.187 372.568 110.952 367.244 118.191C352.198 138.644 341.793 164.661 324.44 183.997C313.568 196.11 300.088 206.232 288.342 217.596" stroke="#94F8AF" stroke-linejoin="round"/>
<path d="M436.882 68.2888C423.328 80.2104 411.415 93.6565 399.077 107.178C392.645 114.226 385.364 120.799 379.049 127.763C361.896 146.683 350.557 172.284 331.888 190.437C321.257 200.776 307.903 208.798 295.923 217.937" stroke="#94F8AF" stroke-linejoin="round"/>
<path d="M452.42 82.1516C438.141 92.7152 425.069 104.37 412.265 117.341C404.983 124.714 397.719 132.221 389.821 138.944C370.418 155.48 358.122 178.449 339.219 195.519C326.648 206.874 310.077 214.697 295.89 224.411" stroke="#94F8AF" stroke-linejoin="round"/>
<path d="M466.557 96.4475C451.662 106.32 437.158 116.792 424.028 128.738C415.997 136.053 407.983 143.742 399.752 150.682C381.34 166.202 365.603 185.647 346.184 200.401C335.095 208.823 322.307 215.305 309.886 222.161" stroke="#94F8AF" stroke-linejoin="round"/>
<path d="M480.228 112.318C464.325 121.907 448.346 131.929 434.242 143.226C425.936 149.874 417.68 157.063 409.332 163.653C391.246 177.941 372.659 193.761 352.615 205.641C336.811 215.013 319.991 222.719 303.788 231.492" stroke="#94F8AF" stroke-linejoin="round"/>
<path d="M495.258 133.712C477.521 142.551 459.41 151.365 443.081 161.712C434.7 167.019 426.377 172.992 418.072 178.54C384.306 201.126 346.334 216.355 309.736 234.233" stroke="#94F8AF" stroke-linejoin="round"/>
<path d="M509.628 161.795C489.701 168.552 469.207 174.742 450.362 183.048C442.081 186.697 433.792 190.995 425.594 195.127C405.592 205.208 385.081 212.398 363.362 217.946C341.86 223.436 322.782 233.775 302.821 243.08" stroke="#94F8AF" stroke-linejoin="round"/>
<path d="M519.092 193.678C498.007 197.527 476.58 200.434 456.069 205.549C447.954 207.574 439.748 210.056 431.717 212.631C410.232 219.512 389.838 222.678 367.378 225.019C346.75 227.168 328.705 236.907 310.052 245.263" stroke="#94F8AF" stroke-linejoin="round"/>
<path d="M520.825 223.677C500.623 225.052 480.353 225.602 460.226 227.426C452.245 228.151 444.189 228.959 436.325 230.109C424.795 231.8 413.331 234.574 401.51 234.449C391.088 234.333 380.732 232.9 370.31 232.642C347.533 232.075 327.539 244.122 306.729 252.186" stroke="#94F8AF" stroke-linejoin="round"/>
<path d="M519.25 247.138C500.339 247.379 481.328 247.138 462.758 247.029C455.019 246.979 446.971 246.529 439.24 246.638C427.502 246.796 415.747 248.745 403.9 246.954C393.195 245.338 382.765 242.164 372.018 240.789C347.992 237.724 326.081 251.853 303.588 258.618" stroke="#94F8AF" stroke-linejoin="round"/>
<path d="M518.892 266.732C500.522 266.024 482.119 264.999 463.908 264.083C456.019 263.683 447.996 262.999 440.123 262.516C428.06 261.775 416.363 262.358 404.5 259.184C393.745 256.301 383.398 251.803 372.459 249.612C351.157 245.33 330.546 256.285 310.036 262.2" stroke="#94F8AF" stroke-linejoin="round"/>
<path d="M518.643 285.318C500.115 283.685 481.587 282.002 463.142 281.119C455.069 280.728 446.913 280.02 438.857 279.112C426.286 277.687 415.089 276.037 403.176 271.414C392.704 267.348 382.515 262.133 371.56 259.417C350.941 254.302 330.147 263.949 309.678 268.098" stroke="#94F8AF" stroke-linejoin="round"/>
<path d="M516.384 304.412C497.648 301.697 479.12 299.739 460.259 299.047C452.053 298.747 443.664 297.898 435.616 296.415C411.856 292.033 392.728 276.112 369.435 269.581C348.816 263.799 327.114 272.747 306.128 274.271" stroke="#94F8AF" stroke-linejoin="round"/>
<path d="M510.386 323.932C504.13 322.141 497.832 320.533 491.483 319.566C479.579 317.759 466.841 319.133 455.169 318.45C446.913 317.967 438.415 316.592 430.634 314.11C408.266 306.978 389.663 286.992 366.27 280.144C349.308 275.171 331.363 278.878 313.768 279.57" stroke="#94F8AF" stroke-linejoin="round"/>
<path d="M500.689 344.451C495.532 342.76 490.267 341.435 484.769 340.894C472.572 339.686 459.776 340.81 448.104 339.036C439.782 337.778 431.684 335.112 424.336 330.921C404.134 319.408 385.564 298.764 362.304 291.208C342.493 284.776 321.358 288.109 301.13 284.218" stroke="#94F8AF" stroke-linejoin="round"/>
<path d="M487.268 367.086C471.114 364.437 454.519 364.329 439.923 359.13C431.643 356.181 424.078 350.841 416.905 345.217C398.069 330.463 380.482 311.735 357.655 302.296C340.427 295.174 321.591 294.407 303.638 289.925" stroke="#94F8AF" stroke-linejoin="round"/>
<path d="M471.614 390.354C457.552 387.23 443.739 383.606 431.684 375.309C423.528 369.702 415.864 363.445 408.541 356.822C390.896 340.852 373.742 324.298 352.449 312.91C338.244 305.312 321.999 300.722 306.287 296.098" stroke="#94F8AF" stroke-linejoin="round"/>
<path d="M410.798 439.015C406.408 432.242 401.884 425.578 397.144 419.104C391.729 411.707 385.989 404.35 380.174 397.244C364.612 378.233 347.775 360.155 329.963 343.001C316.259 329.797 305.354 315.776 294.307 300.58" stroke="#94F8AF" stroke-linejoin="round"/>
<path d="M432.6 426.202C426.902 421.612 421.362 416.705 415.697 411.632C406.908 403.767 400.018 394.012 392.529 384.848C380.465 370.094 366.878 356.398 352.707 343.585C334.52 327.139 323.04 316.976 303.488 302.213" stroke="#94F8AF" stroke-linejoin="round"/>
<path d="M454.394 413.389C447.388 410.973 440.573 408.124 434.242 404.167C421.67 396.303 414.031 383.681 404.867 372.451C396.303 361.963 385.747 352.89 375.434 344.168C352.499 324.782 340.71 318.167 312.652 303.838" stroke="#94F8AF" stroke-linejoin="round"/>
<path d="M277.187 4.61572C280.053 14.9544 283.069 26.3095 282.36 37.0814C281.552 49.4528 277.728 61.641 274.054 73.4959" stroke="#94F8AF" stroke-linejoin="round"/>
<path d="M302.755 16.3955C302.546 24.9264 302.205 33.7405 300.38 42.5713C298.239 52.96 294.749 63.3237 291.441 73.5624" stroke="#94F8AF" stroke-linejoin="round"/>
<path d="M328.322 28.1755C325.048 34.8986 321.299 41.1718 318.408 48.0698C314.884 56.4674 311.777 65.0149 308.836 73.6291" stroke="#94F8AF" stroke-linejoin="round"/>
<path d="M346.592 34.8652C341.768 43.0046 336.195 51.6021 332.313 60.2079C329.647 66.1312 327.239 72.2045 324.865 78.2861" stroke="#94F8AF" stroke-linejoin="round"/>
<path d="M368.236 40.1138C362.154 49.7527 355.123 58.3335 349.133 67.8391C345.942 72.896 343.276 78.4194 340.677 83.9595" stroke="#94F8AF" stroke-linejoin="round"/>
<path d="M389.163 44.3542C381.507 55.9176 373.859 68.4473 364.595 78.3611C358.43 84.9592 353.823 93.4818 349.258 101.404" stroke="#94F8AF" stroke-linejoin="round"/>
<path d="M410.566 51.7188C404.017 60.6578 397.803 69.8385 391.155 78.686C387.264 83.8678 382.174 87.1919 377.95 91.7655C370.502 99.8382 363.696 108.861 357.231 118.083" stroke="#94F8AF" stroke-linejoin="round"/>
<path d="M428.718 62.0823C415.731 75.2951 405.725 92.2986 391.587 103.72C383.715 110.085 377.242 118.116 370.793 126.105" stroke="#94F8AF" stroke-linejoin="round"/>
<path d="M445.088 75.3035C438.774 80.5186 431.801 84.2509 425.494 89.4411C417.863 95.7309 412.281 104.662 405.991 111.693C399.602 118.841 391.92 125.831 384.772 132.787" stroke="#94F8AF" stroke-linejoin="round"/>
<path d="M459.651 89.3245C452.745 94.248 446.222 98.0969 438.957 102.379C429.851 107.752 424.503 113.468 417.463 121.407" stroke="#94F8AF" stroke-linejoin="round"/>
<path d="M473.664 104.362C458.335 114.134 442.006 122.64 428.669 134.903C418.28 144.459 404.484 156.655 395.362 164.528" stroke="#94F8AF" stroke-linejoin="round"/>
<path d="M487.493 121.99C470.731 131.188 454.211 140.868 439.023 151.823C428.06 159.729 417.638 170.385 405.75 177.433" stroke="#94F8AF" stroke-linejoin="round"/>
<path d="M502.822 147.116C483.836 154.931 465.458 164.644 447.488 171.926C438.815 175.441 430.418 181.831 421.729 186.596" stroke="#94F8AF" stroke-linejoin="round"/>
<path d="M515.269 177.791C494.566 183.056 473.789 189.487 454.161 193.936C445.905 195.811 437.349 199.826 429.035 203.242" stroke="#94F8AF" stroke-linejoin="round"/>
<path d="M521 209.99C500.373 212.514 478.729 212.481 458.51 215.855C454.961 216.446 451.387 217.121 447.804 217.846" stroke="#94F8AF" stroke-linejoin="round"/>
<path d="M520.009 235.824C500.373 236.565 481.045 235.324 461.851 236.574C452.961 237.157 443.639 237.215 434.542 237.79" stroke="#94F8AF" stroke-linejoin="round"/>
<path d="M518.959 255.46C508.92 255.31 499.747 254.727 489.775 253.885C481.036 253.152 472.172 254.885 463.708 254.927C451.72 254.993 438.99 254.419 426.635 254.102" stroke="#94F8AF" stroke-linejoin="round"/>
<path d="M518.876 276.229C500.064 275.196 481.553 272.605 462.8 271.98C450.562 271.572 437.674 272.139 425.486 270.347" stroke="#94F8AF" stroke-linejoin="round"/>
<path d="M518.059 293.266C499.173 292.133 479.937 290.225 461.159 289.459C452.086 289.084 442.831 289 433.883 287.226" stroke="#94F8AF" stroke-linejoin="round"/>
<path d="M514.035 313.56C506.604 312.435 497.565 311.669 490.3 310.361C479.962 308.495 468.906 308.736 458.484 308.17C450.703 307.745 442.756 306.845 435.05 304.812" stroke="#94F8AF" stroke-linejoin="round"/>
<path d="M506.562 332.788C500.739 331.13 494.307 330.338 488.534 329.597C477.871 328.231 465.991 329.355 455.077 328.864" stroke="#94F8AF" stroke-linejoin="round"/>
<path d="M494.224 355.806C489.484 354.59 484.577 352.915 479.737 352.499C469.831 351.649 459.268 352.315 449.612 350.949C440.007 349.6 430.476 343.051 422.178 338.003" stroke="#94F8AF" stroke-linejoin="round"/>
<path d="M480.378 377.633C466.082 375.009 450.487 373.784 437.957 367.486C431.201 364.087 424.728 359.613 418.513 354.723" stroke="#94F8AF" stroke-linejoin="round"/>
<path d="M418.071 433.359C413.881 427.16 410.332 420.779 405.8 414.822C400.293 407.574 394.436 400.61 388.447 393.753" stroke="#94F8AF" stroke-linejoin="round"/>
<path d="M441.057 417.113C433.767 412.673 426.311 407.958 419.571 401.968C411.64 394.92 404.417 386.714 397.203 378.733" stroke="#94F8AF" stroke-linejoin="round"/>
<path d="M464.041 400.86C453.653 398.177 442.314 395.103 433.342 389.105C423.028 382.215 414.389 372.81 405.958 363.704" stroke="#94F8AF" stroke-linejoin="round"/>
</svg>
