<?xml version="1.0" encoding="UTF-8"?>
<svg id="left" xmlns="http://www.w3.org/2000/svg" version="1.1" viewBox="0 0 514 393">
  <!-- Generator: Adobe Illustrator 29.1.0, SVG Export Plug-In . SVG Version: 2.1.0 Build 142)  -->
  <defs>
    <style>
      .st0 {
        fill: none;
        stroke: #a3d4a4;
        stroke-miterlimit: 10;
      }
    </style>
  </defs>
  <path class="st0" d="M144.2,289.6c5.3-7.4,10-15.3,13.8-23.7,7.4-15.9,13.7-34.8,6.3-51.7-4.8-11.2-13.9-19.9-22.2-28.6-33.4-33.3-60.1-71.3-43.3-120.1,1.9-6.6,3.4-13.2,4-20,.5-5.8.4-11.6.5-17.5,0-9.5,3.9-24,4.4-28.2"/>
  <path class="st0" d="M118.6,243.4c1.2-2.9,2.4-5.8,3.7-8.6,1.7-4.4,3.3-8.8,4.5-13.2,1.6-5.8,2.7-11.6,2.8-17.4.5-19.4-15.6-42.9-21.7-60.6"/>
  <path class="st0" d="M1.2,272.2c-2.2-37.9,10.2-73,29.4-92.1,4.6-4.6,10-8.3,14.9-12.5,19.2-16.3,32.5-39.5,36.5-64.5,2.2-13.4,1.9-27.3,7.1-40,3.1-8.1,10.4-18.9,16.7-53.3"/>
  <path class="st0" d="M96.9,118.2c-3.9-16.7-10.3-21.1-11.4-42.3"/>
  <path class="st0" d="M256,333.5c-11.6-20-17.5-36.6-15.6-59.5,1.2-14.4,6.1-28.2,7.1-42.6.9-13.9-1.5-27.8-2.1-41.6-.6-14.5,4.6-28.8,10.9-41.5,7.7-15.6,17.4-30.4,21.8-47.2,3.1-11.9,3.6-24.7,8.8-35.8,6.3-13.4,18.3-22.3,29.1-31.6,10.2-8.8,16-13.3,23.7-33.7"/>
  <path class="st0" d="M234.5,392.5c-.7-10.7-6.6-23.6-10.7-33.3-5.5-13.2-10.6-27.1-10.8-41.6-.4-20.8,9-40,16.4-59,7.8-19.9,15.9-40.7,16.3-62.4"/>
  <path class="st0" d="M338,238c2.7,36.3,1.2,65-9,97"/>
  <path class="st0" d="M339.6,0c-6.9,23.4-10.9,47.6-12.2,72-.9,16.3,3.1,22.1,4,38.4"/>
  <path class="st0" d="M327.5,77c-8.8,69.5-50.3,87.2-58.3,127.3-6.4,32.3,1.3,65.7,9,97.8,3.9,16.1,12.1,37.9,17.3,59.9"/>
  <path class="st0" d="M392.4,69.9c-3.4-11-7.9-18.1-15.1-27.1s-20.5-16.4-27.4-25.6c-4.5-6.1-6.5-10.7-10.7-17.1"/>
  <path class="st0" d="M345.3,79.1c3.7-8.1,4.8-18.6,5.4-26.1.6-7.8.3-15.8-.9-23.5-1-6-3.6-16.9-9.5-27.9"/>
  <path class="st0" d="M433.1,114.4c.7-8,.4-16.3,4.9-22.6,2.4-3.4,5.9-6,7.4-9.9,1.3-3.4.7-7.3.3-11-2.6-24.7,3.7-50.4,17.5-70.6"/>
  <path class="st0" d="M445.3,53.4c-.7,13.2-2.1,27.8-11.6,36.4-5.3,4.8-12.5,7-17.8,11.9-6.9,6.4-9.6,16.5-10.4,26.2-.8,9.7.5,15.4-1,25"/>
  <path class="st0" d="M509.1,133.2c3.5-9.4,5-19.6,4.1-29.7-.4-4.8-1.4-9.7-4.2-13.4-3.3-4.2-8.4-6.1-13.3-7.9-7.6-2.8-8.9-6-15.4-10.9-6.5-5-12-11.9-13.9-20.2-1.1-4.6-1-9.4-2.5-13.8-1-3.1-2.7-5.9-4-8.8-2.6-6.1-4-12.7-.6-21.7"/>
  <path class="st0" d="M450.3,115.8c6.5-10.8,13.3-33.5,9.8-45.6-1-3.5-2.4-6.8-2.8-10.4-.4-3.9.5-7.9.2-11.9-.7-9.3-7.5-20.3-4.3-29"/>
  <path class="st0" d="M481.7,72.3c-10.7-7.8-24.4-12.6-24.2-24.5"/>
</svg>