<?xml version="1.0" encoding="UTF-8"?>
<svg id="right" xmlns="http://www.w3.org/2000/svg" version="1.1" viewBox="0 0 426 417">
  <!-- Generator: Adobe Illustrator 29.1.0, SVG Export Plug-In . SVG Version: 2.1.0 Build 142)  -->
  <defs>
    <style>
      .st0 {
        fill: none;
        stroke: #a3d4a4;
        stroke-miterlimit: 10;
      }
    </style>
  </defs>
  <path class="st0" d="M124.1,0c38.9,128.7,27.6,257.6-12.7,409.1"/>
  <path class="st0" d="M135.7,45c4.2,16.2,4.7,33.3,2.5,49.9-1.8,12.9-4.4,26-10.5,37.6-7.1,13.5-18.8,19.9-29.6,29.7-9.3,8.5-18.6,18.7-21.5,31.4"/>
  <path class="st0" d="M124.1,0c26.7,72.4,94.8,120.1,76.9,195.5"/>
  <path class="st0" d="M45.8,416c2-20.5.5-48.6-2.5-68.2-9.2-59.9-44.7-126.4-17.9-189.6"/>
  <path class="st0" d="M1,180.5c15.1-19.8,33.4-27.3,52.5-45.3,33.2-31.2,52-69.2,57.5-110.2"/>
  <path class="st0" d="M385.5,39c-4.9-13-7.1-23.2-8.7-39"/>
  <path class="st0" d="M425.1,221.6c.8-36.4-26.2-54.7-11-92.9,1.1-3.5,2.1-7,2.6-10.4.3-1.8.4-3.5.5-5.2"/>
  <path class="st0" d="M376.8,0c-1,57-51.9,56.8-47.3,121.8,3,37.1,28.4,76.9,32.8,111.9"/>
  <path class="st0" d="M373.9,382c1.8-36.9-26.2-71.5-16.1-108.6.8-3.6,1.6-7.3,2.5-10.9,1.1-4.8,2.1-9.6,2.6-14.4,1.6-14.6-6.1-41.2-11.6-54.6"/>
  <path class="st0" d="M329.5,121.8c6.4,51.6-11.8,117.1-62.3,130.2-7.8,2.2-15.9,3.3-23.9,4-13.1,1.1-27.3.9-39.7-2.9"/>
  <path class="st0" d="M331.9,268.7c.3-5-2.4-16.4-3.2-21.3-4.9-28.2-2.1-65.8,1.9-96.2"/>
  <path class="st0" d="M396.5,262c-6.5-11-17.3-15.8-26.3-24.6-5.6-5.8-9.8-12.7-11.2-20.6"/>
  <path class="st0" d="M24.3,73.9c-.5-9.8-1.1-19.7,1-29.3,3.2-15,14.2-27.9,14.4-44.7"/>
  <path class="st0" d="M18.1,64.8c-1.1-8.9,2.2-17.8,6.4-25.7,4.2-7.9,9.1-15.1,12.1-23.6"/>
</svg>