<svg id="right" viewBox="0 0 426 417" fill="none" xmlns="http://www.w3.org/2000/svg"><path d="M124.12 0C163 128.659 151.7 257.581 111.43 409.069"/><path d="M135.7 45.0107C139.92 61.2235 140.42 78.2875 138.17 94.8651C136.42 107.754 133.81 120.856 127.71 132.438C120.61 145.915 108.95 152.329 98.1 162.158C88.76 170.619 79.48 180.823 76.55 193.55"/><path d="M124.12 0C150.84 72.4408 218.93 120.096 201.06 195.506"/><path d="M45.78 416C47.76 395.471 46.29 367.362 43.29 347.835C34.07 287.939 -1.43002 221.467 25.44 158.277"/><path d="M1 180.5C16.11 160.69 34.4299 153.16 53.5299 135.215C86.7399 104.036 105.49 66.0285 111 25"/><path d="M385.5 39C380.58 25.9817 378.436 15.8475 376.816 0"/><path d="M425.064 221.63C425.843 185.24 398.863 166.892 414.075 128.759C415.151 125.264 416.156 121.789 416.709 118.345C417.007 116.581 417.15 114.829 417.16 113.106"/><path d="M376.816 0C375.822 56.9935 324.897 56.768 329.469 121.757C332.462 158.844 357.904 198.616 362.281 233.612"/><path d="M373.915 382C375.76 345.139 347.725 310.522 357.842 273.384C358.611 269.745 359.482 266.127 360.302 262.498C361.389 257.711 362.363 252.914 362.855 248.065C364.464 233.499 356.797 206.868 351.261 193.46"/><path d="M329.479 121.757C335.865 173.4 317.67 238.901 267.145 251.991C259.354 254.164 251.266 255.302 243.199 255.948C230.078 257.024 215.934 256.813 203.5 253"/><path d="M331.857 268.679C332.123 263.687 329.427 252.288 328.607 247.358C323.697 219.148 326.475 181.569 330.463 151.125"/><path d="M396.5 262C390.011 251.011 379.235 246.22 370.194 237.394C364.618 231.603 360.354 224.725 358.959 216.791"/><path d="M24.3412 73.9173C23.8081 64.1382 23.2751 54.2258 25.2945 44.662C28.4517 29.6448 39.4916 16.7495 39.6761 0"/><path d="M18.0986 64.8043C17.0428 55.8863 20.3435 47.0195 24.4847 39.0957C28.6362 31.172 33.6078 23.9761 36.6112 15.5295"/></svg>