<svg id="left" viewBox="0 0 514 393" fill="none" xmlns="http://www.w3.org/2000/svg"><path d="M144.235 289.6C149.525 282.154 154.195 274.267 158.065 265.938C165.505 250.033 171.795 231.178 164.385 214.28C159.615 203.101 150.515 194.361 142.175 185.721C108.775 152.436 82.0355 114.415 98.9055 65.5764C100.765 59.0038 102.316 52.3809 102.856 45.6175C103.376 39.8175 103.255 33.9773 103.375 28.1673C103.295 18.6845 107.275 4.21455 107.795 0"/><path d="M118.586 243.36C119.796 240.48 121.026 237.6 122.286 234.741C123.986 230.386 125.576 225.98 126.826 221.545C128.456 215.785 129.526 209.955 129.586 204.125C130.066 184.768 114.006 161.227 107.896 143.526"/><path d="M1.24556 272.22C-0.924441 234.279 11.4856 199.248 30.6356 180.122C35.2356 175.526 40.5956 171.783 45.5556 167.589C64.7956 151.333 78.0456 128.042 82.0756 103.116C84.2756 89.74 83.9356 75.8119 89.1656 63.108C92.2956 55 99.5456 44.2027 105.836 9.80396"/><path d="M96.8956 118.228C92.9656 101.551 86.5856 97.1554 85.5256 75.9421"/><path d="M256 333.5C244.35 313.463 238.531 296.925 240.381 274.026C241.541 259.674 246.471 245.835 247.441 231.463C248.371 217.574 245.941 203.665 245.321 189.857C244.671 175.313 249.951 161.092 256.251 148.352C263.951 132.79 273.601 117.994 278.041 101.132C281.181 89.2187 281.661 76.4487 286.851 65.3216C293.111 51.9065 305.131 43.0169 315.931 33.714C326.161 24.905 331.961 20.4502 339.611 0"/><path d="M234.5 392.5C233.81 381.847 227.861 368.889 223.831 359.183C218.331 345.959 213.271 332.121 213.011 317.607C212.631 296.774 221.991 277.564 229.421 258.656C237.251 238.72 245.341 217.947 245.711 196.217"/><path d="M338 238C340.68 274.324 339.17 303.009 329 335"/><path d="M339.611 0.0100098C332.691 23.4435 328.731 47.643 327.451 72.0542C326.591 88.3821 330.57 94.1721 331.5 110.5"/><path d="M327.5 77C318.67 146.504 277.181 164.236 269.211 204.31C262.781 236.643 270.521 270.014 278.231 302.086C282.101 318.202 290.29 339.957 295.5 362"/><path d="M392.421 69.8772C388.981 58.8307 384.521 51.7653 377.341 42.7346C370.161 33.7039 356.841 26.3765 349.901 17.114C345.351 11.0464 343.361 6.37989 339.231 0.0100098"/><path d="M345.281 79.0995C348.971 70.9961 350.121 60.5341 350.711 53.0455C351.321 45.2041 351.011 37.282 349.771 29.5212C348.811 23.5041 346.121 12.639 340.281 1.59253"/><path d="M433.141 114.41C433.809 106.38 433.589 98.1253 438.007 91.7653C440.371 88.3548 443.941 85.7841 445.397 81.8411C446.674 78.3999 446.115 74.5491 445.716 70.8723C443.074 46.149 449.456 20.4629 463.258 0.276611"/><path d="M445.307 53.4307C444.579 66.5912 443.173 81.2572 433.709 89.8705C428.384 94.7148 421.203 96.8553 415.908 101.741C408.967 108.131 406.264 118.26 405.486 127.939C404.708 137.617 406.025 143.352 404.489 152.918"/><path d="M509.133 133.152C512.664 123.77 514.09 113.518 513.282 103.461C512.893 98.7089 511.926 93.7827 509.044 90.0957C505.772 85.9171 500.627 84.0327 495.77 82.2199C488.17 79.383 486.884 76.2285 480.342 71.2716C473.8 66.3146 468.305 59.3708 466.4 51.116C465.343 46.5482 465.393 41.7142 463.927 37.2693C462.909 34.1763 461.194 31.4008 459.908 28.4205C457.275 22.2858 455.869 15.7516 459.259 6.67749"/><path d="M450.344 115.772C456.816 105.018 463.617 82.3122 460.097 70.1247C459.1 66.6732 457.693 63.3037 457.334 59.7089C456.945 55.7659 457.853 51.7921 457.574 47.8388C456.916 38.5292 450.124 27.5604 453.276 18.8345"/><path d="M481.748 72.3062C471.017 64.4815 457.335 59.7089 457.564 47.8389"/></svg>