<svg viewBox="0 0 956 322" fill="none" xmlns="http://www.w3.org/2000/svg"><path d="M532.595 36.3663C551.911 42.4396 568.316 51.0598 577.5 63.3373C582.253 69.222 586.047 75.5354 591.45 81.1883C613.833 105.138 661.693 104.782 703.833 94.8969C709.604 93.7284 715.377 92.5901 721.184 91.7225C731.431 90.092 741.757 89.7738 752.034 89.6604C761.6 89.535 771.394 88.8246 780.397 86.0423C801.123 79.8133 852.631 39.3776 872.21 30.2378C875.895 28.4818 879.728 26.8591 883.57 25.2417"/><path d="M440.48 43.3431C438.808 43.5567 398.418 45.2233 357.549 68.9707C350.769 72.9122 334.132 81.5981 323.632 84.2599C316.132 86.1612 297.746 88.3336 290.632 91.2314C272.338 98.4319 268.632 100.104 255.632 113.413"/><path d="M440.48 43.3433C418.845 44.3338 396.801 45.5107 376.977 42.5084C369.72 41.4358 362.846 40.2463 355.114 38.7948C345.709 37.052 336.13 35.2473 325.988 35.7185C318.263 36.0182 310.486 37.6005 303.061 39.5192C262.726 50.4086 222.171 63.0962 192.037 83.8014C176.965 93.8169 160.811 100.91 140.713 106.195C118.531 112.313 94.8718 116.594 74.1854 125.022C38.6169 139.541 20.6648 165.712 7.75293 189.026"/><path d="M538.668 29.7299C549.422 33.1135 560.383 36.6132 568.552 42.072C576.116 46.9139 579.479 53.793 586.525 58.8616C594.145 64.1911 605.344 68.0169 617.431 68.5753C635.75 69.2814 645.406 59.7626 660.199 54.6613C666.359 52.5233 676.252 52.3395 682.819 52.5679"/><path d="M953.814 0.999995C929.478 21.5007 891.868 21.8931 856.132 31.0233C840.262 35.2746 823.759 44.6609 806.601 45.0711C786.75 45.5234 779.449 49.1875 761.877 54.247C750.14 57.4274 737.569 59.0865 725.236 59.1813C712.904 59.2821 700.819 57.8298 690.026 54.8386C678.857 51.5817 668.687 47.1147 655.801 46.2356C628.701 44.5727 618.132 43.0649 606.632 34.1921"/><path d="M424.245 164.151C421.699 156.995 423.462 150.96 427.721 143.605C429.984 139.43 432.779 135.258 437.196 131.634C441.168 128.298 446.281 125.496 451.243 122.694C458.745 118.466 465.858 113.876 471.618 108.739C476.326 104.543 480.187 99.6899 480.941 94.8475C481.568 91.3836 480.554 87.9569 479.526 84.6408C473.215 67.0297 496.263 64.6869 492.687 43.8268"/><path d="M688.664 291.173C656.331 265.017 637.749 232.651 634.139 198.554C632.998 191.06 631.487 183.566 627.754 176.53C624.205 169.728 618.826 163.386 611.884 157.816C605.013 152.064 597.671 148.389 585.32 148.339C579.049 148.213 572.397 148.265 566.395 147.162C558.111 145.755 550.594 143.116 543.933 139.99C518.36 128.057 504.793 108.35 505.311 87.7898C504.954 75.049 505.751 60.6594 492.883 50.7092"/><path d="M505.262 80.6514C505.543 75.7704 505.622 70.846 508.224 66.0764C511.147 60.55 517.806 55.9136 521.182 50.4275C524.145 45.8398 524.054 41.1244 522.97 36.567"/><path d="M591.646 195.789C589.152 180.776 579.892 178.158 563.105 169.698C548.295 161.111 533.722 151.903 524.079 140.771C516.869 132.416 513.179 122.422 509.891 113.19C508.704 109.347 504.871 95.894 505.307 89.3951C505.396 88.0683 511.932 91.4785 513.762 92.325C527.73 99.4091 542.259 106.117 557.307 112.397C573.699 119.262 590.599 125.694 607.757 131.879C632.903 140.517 649.154 146.804 660.796 163.85C668.431 174.169 669.619 186.127 676.393 196.629C680.791 203.365 688.432 208.905 694.824 214.869C705.87 225.054 713.126 236.913 716.128 249.415C724.356 285.165 720.197 324.711 748.208 356.087"/><path d="M948.138 95.7108C929.084 118.471 886.421 128.528 846.452 133.631C837.441 134.937 828.324 135.954 819.376 137.498C806.82 139.436 794.952 143.752 782.478 145.524C775.305 146.515 768.184 146.437 761.138 145.861C754.726 145.346 748.387 144.514 742.009 143.887C700.246 139.582 666.597 148.376 627.701 139.199"/><path d="M588.743 286.963C574.55 280.36 558.491 274.847 547.258 266.246C539.201 260.048 533.405 252.466 526.587 245.469C520.918 239.504 515.658 233.152 514.197 226.038C511.359 213.77 519.967 201.138 522.233 188.732C524.966 177.009 520.012 165.282 520.968 153.881C521.385 149.463 519.74 141.543 521.25 137.153"/><path d="M379.211 284.017C399.172 277.914 420.877 271.619 432.774 257.502C453.653 233.826 463.844 205.934 459.464 179.38C459.133 176.381 458.814 173.387 458.654 170.386C457.494 159.702 462.02 146.458 454.751 137.567C451.33 133.549 448.253 130.348 442.263 127.967"/><path d="M150.801 387.676C183.113 357.739 186.032 323.327 198.72 290.389C205.216 274.223 218.687 259.175 231.064 244.092C236.441 237.596 241.808 231.1 247.205 224.608C252.227 218.592 257.277 212.538 263.103 206.757C294.529 174.094 355.792 168.524 382.245 133.192C389.537 124.453 397.993 115.919 409.203 108.668C414.586 105.113 420.477 101.862 426.65 98.8412C436.064 94.1819 446.28 90.0861 454.249 84.4683C457.863 81.9283 460.936 79.0454 462.878 75.9857C465.093 72.5867 465.883 68.9873 467.503 65.5237C472.187 55.7982 481.27 53.2217 484.52 43.856"/><path d="M435.045 94.8221C414.014 105.29 389.091 112.699 363.282 115.32C313.888 120.555 266.047 106.595 216.683 116.915C183.065 123.457 153.011 138.223 134.273 156.949"/><path d="M357.404 115.987C327.573 123.834 313.243 135.546 299.032 152.883C286.549 167.105 276.447 179.92 276.018 195.768"/><path d="M340.165 163.788C308.403 181.307 291.471 203.631 296.845 228.124C298.418 235.831 300.42 243.513 299.74 251.437C299.475 256.244 298.87 261.08 299.224 265.845C299.721 274.04 303.364 282.038 305.282 290.201C307.227 298.296 308.846 306.503 313.785 313.983C319.385 322.78 327.805 330.698 334.42 339.171C346.609 353.866 351.252 370.671 350.949 387.754"/><path d="M336.467 351.25C319.161 342.276 301.669 333.396 285.767 323.499C270.257 313.799 259.048 301.889 268.9 287.016C274.239 278.287 280.459 269.749 286.184 261.132C291.796 253.393 297.766 245.606 298.626 236.737"/><path d="M371.84 144.276C368.914 150.308 360.325 159.729 355.577 165.43C349.871 172.532 341.275 179.376 337.412 186.819C331.141 198.17 341.386 208.18 355.676 213.778C366.79 218.462 381.32 220.665 392.504 224.96C401.251 228.12 408.483 234.62 403.24 241.366C398.78 247.212 388.338 249.686 378.912 252.225C360.732 256.777 354.615 261.793 349.221 273.05"/><path d="M295.869 219.022C304.678 237.447 317.027 252.718 338.388 266.513C365.519 283.801 405.401 291.932 445.852 293.043"/><path d="M382.801 221.937C406.405 203.115 429.612 177.04 407.816 156.961C374.945 132.005 403.025 113.494 410.53 107.801"/></svg>