<svg width="17" height="16" viewBox="0 0 17 16" fill="none" xmlns="http://www.w3.org/2000/svg">
<path d="M12.25 0.5H4.75C2.67893 0.5 1 2.17893 1 4.25V11.75C1 13.8211 2.67893 15.5 4.75 15.5H12.25C14.3211 15.5 16 13.8211 16 11.75V4.25C16 2.17893 14.3211 0.5 12.25 0.5Z" stroke="#EEEDDC" stroke-linecap="round" stroke-linejoin="round"/>
<path d="M11.5001 7.52773C11.5926 8.15191 11.486 8.78939 11.1954 9.34949C10.9048 9.90959 10.4449 10.3638 9.88129 10.6475C9.31765 10.9312 8.67891 11.0299 8.05591 10.9297C7.43291 10.8294 6.85739 10.5353 6.4112 10.0891C5.96501 9.64291 5.67087 9.06738 5.57062 8.44439C5.47037 7.82139 5.56912 7.18265 5.85281 6.61901C6.13651 6.05537 6.59071 5.59553 7.15081 5.30491C7.71091 5.01428 8.34839 4.90767 8.97257 5.00023C9.60926 5.09464 10.1987 5.39132 10.6538 5.84646C11.109 6.30159 11.4057 6.89103 11.5001 7.52773Z" stroke="#EEEDDC" stroke-linecap="round" stroke-linejoin="round"/>
<path d="M12.625 3.875H12.6325" stroke="#EEEDDC" stroke-linecap="round" stroke-linejoin="round"/>
</svg>
